<svg width="678" height="93" fill="none" xmlns="http://www.w3.org/2000/svg"><g clip-path="url(#a)" fill="#fff"><path d="M115.996 14.338h8.531l5.874 14.009h.298l5.874-14.009h8.531v24.73h-6.712V24.767h-.202l-5.623 14.103h-4.044L122.9 24.672h-.203v14.396h-6.701v-24.73zM156.655 39.068h-7.405l8.339-24.73h9.369l8.338 24.73h-7.404l-5.527-17.919h-.202l-5.527 17.92h.019zm-1.377-9.757h13.914v5.025h-13.914V29.31zM179.46 39.068v-24.73h10.9c1.877 0 3.514.331 4.92 1.002 1.406.67 2.504 1.634 3.283 2.89.78 1.256 1.175 2.758 1.175 4.515 0 1.757-.404 3.269-1.203 4.478-.8 1.218-1.926 2.135-3.37 2.758-1.445.624-3.13.926-5.056.926H183.6v-5.214h5.132c.809 0 1.493-.095 2.071-.293.568-.199 1.011-.51 1.319-.945.308-.434.462-1.001.462-1.7 0-.7-.154-1.285-.462-1.729-.308-.444-.751-.774-1.319-.992-.568-.217-1.262-.32-2.071-.32h-2.416v19.354h-6.856zm14.799-11.354 6.317 11.354h-7.453l-6.162-11.354h7.298zM210.945 39.067h-7.404l8.338-24.73h9.369l8.338 24.73h-7.404l-5.527-17.919h-.202l-5.527 17.92h.019zm-1.377-9.758h13.914v5.026h-13.914v-5.026zM229.842 19.75v-5.413h21.954v5.413h-7.597v19.317h-6.76V19.75h-7.597zM279.387 26.703c0 2.758-.549 5.073-1.637 6.962-1.097 1.889-2.571 3.315-4.429 4.288-1.858.973-3.929 1.455-6.22 1.455-2.292 0-4.381-.491-6.23-1.464-1.849-.973-3.322-2.409-4.42-4.298-1.088-1.89-1.637-4.204-1.637-6.934 0-2.73.549-5.072 1.637-6.961 1.088-1.89 2.562-3.316 4.42-4.289 1.858-.973 3.929-1.455 6.23-1.455 2.301 0 4.362.482 6.22 1.455 1.858.973 3.332 2.4 4.429 4.289 1.098 1.889 1.637 4.212 1.637 6.961v-.01zm-7.058 0c0-1.483-.202-2.73-.597-3.75-.395-1.02-.982-1.795-1.762-2.314-.78-.53-1.733-.794-2.869-.794-1.136 0-2.09.265-2.87.794-.78.529-1.367 1.303-1.762 2.314-.394 1.01-.597 2.267-.597 3.75s.203 2.73.597 3.75c.395 1.02.982 1.795 1.762 2.314.78.53 1.734.794 2.87.794 1.136 0 2.089-.265 2.869-.794.78-.529 1.367-1.303 1.762-2.314.395-1.01.597-2.267.597-3.75zM306.138 14.338v24.73h-5.72l-9.128-12.997h-.144v12.997h-6.856v-24.73h5.825l8.984 12.942h.193V14.338h6.855-.009zM317.691 39.068h-7.405l8.339-24.73h9.368l8.339 24.73h-7.405l-5.526-17.919h-.203l-5.527 17.92h.02zm-1.377-9.757h13.913v5.025h-13.913V29.31zM117.103 79.633V52.43h18.035v4.128H122.13v7.386h12.074v4.129H122.13v7.424h13.114v4.128h-18.141v.01zM148.284 52.429l6.105 9.956h.211l6.134-9.956h5.729l-8.541 13.602 8.676 13.602h-5.826l-6.172-9.899h-.211l-6.173 9.9h-5.796l8.762-13.603-8.647-13.602h5.758-.009zM174.207 79.633V52.428h10.399c2.128 0 3.919.387 5.373 1.171 1.444.775 2.542 1.852 3.293 3.212.741 1.36 1.117 2.9 1.117 4.628 0 1.729-.376 3.297-1.127 4.648-.751 1.35-1.858 2.418-3.312 3.193-1.454.774-3.265 1.162-5.402 1.162h-6.894v-4.053h6.21c1.242 0 2.263-.208 3.062-.633.799-.425 1.387-1.01 1.762-1.757.385-.746.578-1.596.578-2.56 0-.963-.193-1.813-.578-2.55-.385-.737-.972-1.304-1.771-1.72-.8-.415-1.83-.613-3.082-.613h-4.602v23.086h-5.026v-.01zM202.558 79.633V52.43h5.027v23.067h12.209v4.128h-17.236v.01zM251.646 66.03c0 2.928-.559 5.44-1.676 7.528-1.117 2.088-2.628 3.684-4.544 4.79-1.917 1.105-4.093 1.662-6.519 1.662-2.427 0-4.603-.557-6.519-1.662-1.916-1.115-3.437-2.711-4.545-4.799-1.117-2.088-1.675-4.59-1.675-7.51 0-2.918.558-5.44 1.675-7.519 1.117-2.087 2.629-3.684 4.545-4.789 1.916-1.105 4.092-1.662 6.519-1.662 2.426 0 4.602.557 6.519 1.662 1.916 1.105 3.437 2.702 4.544 4.79 1.117 2.087 1.676 4.59 1.676 7.518v-.009zm-5.046 0c0-2.06-.327-3.807-.982-5.224-.655-1.417-1.56-2.493-2.715-3.23-1.156-.728-2.484-1.096-3.996-1.096s-2.841.368-3.996 1.096c-1.156.727-2.061 1.804-2.715 3.23-.655 1.417-.983 3.165-.983 5.224 0 2.06.328 3.807.983 5.224.654 1.417 1.559 2.493 2.715 3.23 1.155.728 2.484 1.096 3.996 1.096s2.84-.368 3.996-1.096c1.155-.727 2.06-1.804 2.715-3.23.655-1.427.982-3.165.982-5.224zM260.217 79.633V52.428h10.399c2.128 0 3.919.359 5.373 1.086 1.444.727 2.542 1.738 3.293 3.051.741 1.304 1.117 2.825 1.117 4.563 0 1.738-.376 3.258-1.127 4.534-.751 1.284-1.858 2.267-3.322 2.966-1.463.699-3.254 1.039-5.392 1.039h-7.404v-4.09h6.73c1.242 0 2.263-.17 3.062-.51.8-.34 1.387-.841 1.762-1.502.376-.661.578-1.474.578-2.437 0-.964-.192-1.795-.578-2.475-.385-.69-.982-1.21-1.771-1.568-.799-.36-1.82-.539-3.072-.539h-4.602v23.087h-5.046zm14.328-12.328 6.865 12.328h-5.604l-6.74-12.328h5.479zM288.835 79.633V52.43h18.035v4.128h-13.008v7.386h12.074v4.129h-12.074v7.424h13.114v4.128h-18.141v.01zM315.813 79.633V52.428h10.399c2.128 0 3.919.359 5.373 1.086 1.445.727 2.542 1.738 3.293 3.051.742 1.304 1.117 2.825 1.117 4.563 0 1.738-.375 3.258-1.126 4.534-.751 1.284-1.859 2.267-3.322 2.966-1.464.699-3.255 1.039-5.392 1.039h-7.405v-4.09h6.731c1.242 0 2.262-.17 3.062-.51.799-.34 1.386-.841 1.762-1.502.375-.661.577-1.474.577-2.437 0-.964-.192-1.795-.577-2.475-.386-.69-.983-1.21-1.772-1.568-.799-.36-1.82-.539-3.072-.539h-4.602v23.087h-5.046zm14.328-12.328 6.865 12.328h-5.604l-6.74-12.328h5.479z"/></g><mask id="c" style="mask-type:alpha" maskUnits="userSpaceOnUse" x="0" y="0" width="93" height="93"><g clip-path="url(#b)" fill="#F45C2D"><path d="M67.8 21.576c4.576 0 8.3-3.705 8.3-8.302a8.286 8.286 0 0 0-8.3-8.301 8.286 8.286 0 0 0-8.3 8.301 8.286 8.286 0 0 0 8.3 8.302z"/><path d="M87.988 25.499c-1.486-2.913-5.051-4.062-7.943-2.576-2.912 1.486-4.06 5.052-2.575 7.945 2.476 4.834 3.724 10.104 3.724 15.632 0 19.12-15.57 34.672-34.685 34.672-19.115 0-34.684-15.553-34.684-34.672 0-19.12 15.55-34.672 34.665-34.672a5.906 5.906 0 0 0 5.902-5.904c0-3.25-2.654-5.904-5.902-5.904C20.858 0 0 20.863 0 46.5 0 72.138 20.858 93 46.49 93S93 72.138 93 46.5c0-7.43-1.684-14.483-5.012-21.021v.02z"/></g></mask><g mask="url(#c)"><path fill="url(#d)" d="M-4.455-4.46H99.218V97.22H-4.455z"/></g><path d="m391.562 15 .001 63.438" stroke="url(#e)" stroke-width="8.75"/><path d="M450.018 57V28.63h16.457v2.327h-13.867v10.68h12.994v2.328h-12.994v10.708h14.144V57h-16.734zm33.424 0h-8.312V28.63h8.81c2.706 0 5.02.563 6.941 1.69 1.93 1.126 3.407 2.742 4.433 4.848 1.025 2.106 1.537 4.632 1.537 7.578 0 2.973-.526 5.527-1.579 7.66-1.044 2.124-2.567 3.754-4.571 4.89-1.995 1.136-4.415 1.704-7.259 1.704zm-5.721-2.327h5.568c2.438 0 4.479-.48 6.123-1.44 1.644-.961 2.877-2.333 3.699-4.115.822-1.783 1.233-3.907 1.233-6.372-.009-2.448-.416-4.553-1.219-6.317-.794-1.764-1.977-3.117-3.546-4.06-1.561-.941-3.491-1.412-5.791-1.412h-6.067v23.716zm29.95-26.043V57h-2.591V28.63h2.591zm31.713 8.865h-2.604a8.085 8.085 0 0 0-1.053-2.687 8.323 8.323 0 0 0-1.884-2.175 8.573 8.573 0 0 0-2.577-1.44c-.96-.342-1.999-.513-3.117-.513-1.791 0-3.426.466-4.904 1.399-1.468.933-2.645 2.304-3.532 4.114-.877 1.801-1.316 4.008-1.316 6.622 0 2.632.439 4.848 1.316 6.65.887 1.8 2.064 3.167 3.532 4.1 1.478.923 3.113 1.385 4.904 1.385 1.118 0 2.157-.171 3.117-.513a8.744 8.744 0 0 0 2.577-1.427 8.322 8.322 0 0 0 1.884-2.174 8.235 8.235 0 0 0 1.053-2.702h2.604a11.387 11.387 0 0 1-1.302 3.644 10.847 10.847 0 0 1-2.411 2.936 10.835 10.835 0 0 1-3.352 1.967c-1.265.471-2.655.707-4.17.707-2.382 0-4.497-.596-6.344-1.787-1.847-1.2-3.297-2.89-4.35-5.07-1.044-2.18-1.565-4.752-1.565-7.716 0-2.965.521-5.537 1.565-7.716 1.053-2.18 2.503-3.865 4.35-5.056 1.847-1.201 3.962-1.801 6.344-1.801 1.515 0 2.905.235 4.17.706a10.485 10.485 0 0 1 3.352 1.967c.979.84 1.783 1.82 2.411 2.937a11.231 11.231 0 0 1 1.302 3.643zm-12.343 19.547h2.106l-.208 1.108c.794.12 1.468.438 2.022.956.564.526.85 1.292.859 2.3-.009 1.117-.448 2.003-1.316 2.659-.859.656-2.128.993-3.809 1.011l-.083-1.731c.914-.019 1.634-.176 2.161-.471.526-.287.789-.753.789-1.4 0-.692-.244-1.182-.734-1.468-.48-.286-1.242-.457-2.286-.513l.499-2.451zm20.42-.042h-2.715l10.32-28.37h2.77L568.157 57h-2.715l-8.894-25.004h-.194L547.461 57zm1.953-10.874h14.074v2.327h-14.074v-2.327zm2.369-20.752-1.995-.11c.046-1.229.452-2.23 1.219-3.007.767-.785 1.704-1.177 2.812-1.177.563 0 1.058.097 1.482.29.425.195.822.421 1.192.68.378.249.762.475 1.149.678.398.194.845.291 1.344.291.564 0 1.053-.203 1.469-.61.424-.406.664-.913.72-1.523l1.953.222c-.065 1.246-.485 2.24-1.26 2.978-.767.739-1.69 1.108-2.771 1.108-.619 0-1.141-.097-1.565-.29a7.49 7.49 0 0 1-1.136-.68 7.078 7.078 0 0 0-1.081-.665c-.378-.203-.84-.304-1.385-.304a2.01 2.01 0 0 0-1.496.623 2.273 2.273 0 0 0-.651 1.496zm45.112 17.44c0 2.956-.527 5.528-1.579 7.717-1.053 2.18-2.503 3.87-4.35 5.07-1.838 1.191-3.953 1.787-6.345 1.787s-4.511-.596-6.358-1.787c-1.838-1.2-3.283-2.89-4.336-5.07-1.044-2.189-1.565-4.76-1.565-7.716 0-2.955.521-5.523 1.565-7.702 1.053-2.189 2.503-3.88 4.35-5.07 1.847-1.201 3.962-1.801 6.344-1.801 2.392 0 4.507.6 6.345 1.8 1.847 1.192 3.297 2.882 4.35 5.07 1.052 2.18 1.579 4.748 1.579 7.703zm-2.521 0c0-2.539-.425-4.714-1.275-6.524-.849-1.82-2.008-3.209-3.477-4.17-1.468-.96-3.135-1.44-5.001-1.44-1.856 0-3.518.48-4.987 1.44-1.468.961-2.632 2.346-3.491 4.156-.849 1.81-1.274 3.99-1.274 6.539 0 2.54.425 4.714 1.274 6.524.85 1.81 2.009 3.2 3.477 4.17 1.469.96 3.136 1.44 5.001 1.44 1.866 0 3.533-.48 5.001-1.44 1.478-.96 2.641-2.346 3.491-4.156.85-1.819 1.27-3.998 1.261-6.538zM617.422 57v-1.898l9.268-10.417c1.21-1.367 2.184-2.535 2.923-3.505.739-.97 1.274-1.865 1.607-2.687a6.625 6.625 0 0 0 .512-2.563c0-1.08-.254-2.023-.762-2.826a5.115 5.115 0 0 0-2.064-1.898c-.877-.452-1.865-.678-2.964-.678-1.164 0-2.184.249-3.062.748a5.26 5.26 0 0 0-2.022 2.05c-.48.868-.72 1.865-.72 2.992h-2.48c0-1.57.36-2.96 1.08-4.17a7.8 7.8 0 0 1 2.979-2.867c1.265-.693 2.696-1.04 4.294-1.04 1.579 0 2.983.343 4.211 1.026 1.229.674 2.194 1.593 2.896 2.757.701 1.163 1.052 2.465 1.052 3.906a8.511 8.511 0 0 1-.554 3.034c-.36.979-.983 2.068-1.87 3.269-.886 1.2-2.115 2.669-3.685 4.405l-7.037 7.855v.18h14.033V57h-17.635zm27.824.208a1.953 1.953 0 0 1-1.413-.582 1.952 1.952 0 0 1-.581-1.413c0-.554.193-1.025.581-1.413a1.953 1.953 0 0 1 1.413-.582c.554 0 1.025.194 1.413.582.388.388.582.859.582 1.413 0 .36-.092.693-.277.997-.175.305-.416.55-.72.735a1.918 1.918 0 0 1-.998.263zm17.992.18c-1.995 0-3.698-.573-5.111-1.718-1.404-1.154-2.485-2.821-3.242-5-.748-2.18-1.122-4.798-1.122-7.855 0-3.048.374-5.657 1.122-7.827.757-2.18 1.842-3.846 3.255-5 1.423-1.164 3.122-1.746 5.098-1.746 1.977 0 3.671.582 5.084 1.745 1.422 1.155 2.508 2.822 3.256 5.001.757 2.17 1.136 4.78 1.136 7.827 0 3.057-.379 5.675-1.136 7.854-.748 2.18-1.829 3.847-3.242 5.001-1.404 1.145-3.103 1.718-5.098 1.718zm0-2.327c2.189 0 3.897-1.067 5.126-3.2 1.228-2.143 1.842-5.158 1.842-9.046 0-2.586-.282-4.793-.845-6.622-.554-1.838-1.353-3.241-2.396-4.211-1.035-.97-2.277-1.454-3.727-1.454-2.17 0-3.874 1.08-5.111 3.241-1.238 2.152-1.857 5.167-1.857 9.046 0 2.586.277 4.793.831 6.621.564 1.829 1.363 3.224 2.397 4.184 1.044.96 2.29 1.44 3.74 1.44z" fill="#42D3FF"/><defs><clipPath id="a"><path fill="#fff" transform="translate(116 14.002)" d="M0 0h221v66H0z"/></clipPath><clipPath id="b"><path fill="#fff" d="M0 0h93v93H0z"/></clipPath><radialGradient id="d" cx="0" cy="0" r="1" gradientUnits="userSpaceOnUse" gradientTransform="matrix(37.88067 1.99372 -2.41276 45.84245 30.436 9.496)"><stop stop-color="#42D3FF"/><stop offset=".357" stop-color="#48CEF7"/><stop offset="1" stop-color="#F45C2D"/></radialGradient><linearGradient id="e" x1="373.062" y1="-9.806" x2="396.244" y2="78.599" gradientUnits="userSpaceOnUse"><stop stop-color="#42D3FF"/><stop offset="1" stop-color="#42D3FF" stop-opacity="0"/></linearGradient></defs></svg>